<?xml version="1.0" encoding="utf-8"?>
<!-- Generator: Adobe Illustrator 21.0.0, SVG Export Plug-In . SVG Version: 6.00 Build 0)  -->
<svg version="1.0" id="Layer_1" xmlns="http://www.w3.org/2000/svg" xmlns:xlink="http://www.w3.org/1999/xlink" x="0px" y="0px"
	 viewBox="0 0 1600 2375" style="enable-background:new 0 0 1600 2375;" xml:space="preserve">
<style type="text/css">
	.st0{fill:#F4F8FB;}
	.st1{fill:#FFFFFF;}
</style>
<path class="st0" d="M854.5,1892.2c0,0,38.9,11.7,94.1-31.3c0,0,92.8-68.9,165.2-65c0,0,146.3,4.2,178.3,134.5
	c0,0-76.7-120.2-211-86.5c0,0-54.4,12.5-157.7,85.6c0,0-47.5,31.8-69.7-35.4l-1.1-3.4L854.5,1892.2z"/>
<g>
	<rect class="st1" width="1600" height="2375"/>
	<g>
		<path class="st0" d="M1250,1600c0,0,4.7,40.3,66,74c0,0,100,58,125,126c0,0,54,136-53,217c0,0,80-118-4-228c0,0-33-45-141-111
			c0,0-48-31,5-78l2.7-2.3L1250,1600z"/>
		<path class="st0" d="M1007.3,1690.8c0,0,26,31.2,95.8,25.7c0,0,115.4-6.3,173.6,36.8c0,0,119.7,84.1,74.7,210.5
			c0,0,2.2-142.5-128.4-188.5c0,0-52.3-19.5-178.8-15.5c0,0-57.1,0.4-38.6-68l1-3.4L1007.3,1690.8z"/>
		<path class="st0" d="M854.4,1892.5c0,0,38.9,11.6,94-31.5c0,0,92.7-69.1,165-65.3c0,0,146.3,3.9,178.6,134.2
			c0,0-77-120-211.2-86.1c0,0-54.4,12.6-157.5,85.9c0,0-47.4,31.9-69.7-35.3l-1.1-3.4L854.4,1892.5z"/>
		<path class="st0" d="M838.4,2138.6c0,0,39.2-10.7,63.1-76.5c0,0,42.1-107.6,105.6-142.7c0,0,126.2-74,222.5,19.4
			c0,0-128.8-61.2-224.7,38.6c0,0-39.5,39.4-88.3,156.2c0,0-23.4,52.2-77.9,6.9l-2.7-2.3L838.4,2138.6z"/>
		<path class="st0" d="M963.2,2358c0,0,27.1-30.2,11.8-98.5c0,0-22.7-113.4,11.7-177.1c0,0,66.2-130.5,197.8-103.9
			c0,0-141.4,18.1-168.3,153.9c0,0-11.9,54.5,10.1,179.2c0,0,8.5,56.5-61.8,47.9l-3.5-0.5L963.2,2358z"/>
		<path class="st0" d="M1130.3,2378.3c13.3-1,26.3-2.7,39.7-2.3c5.8,0.2,11.6,0.5,17.4,1c-62.4-65.8-79.1-103.3-79.1-103.3
			c-58.7-125.3,44.5-223.6,44.5-223.6c-121.8,56.4-97.9,200.8-97.9,200.8c6.7,48.3,47.7,99.4,73.7,127.7
			C1129.2,2378.5,1129.7,2378.4,1130.3,2378.3z"/>
		<path class="st0" d="M1283.3,2376c8.3,0,16.5,1.2,24.8,1.7c16.6,1.1,33.4,0.1,50-0.2c19.7-0.4,39.4-1.4,59.1-1.1
			c-119.5-25.1-164.3-55.2-164.3-55.2c-116.4-74.9-81.3-213-81.3-213c-73.1,112.6,24,222.1,24,222.1c16.6,19.7,41.7,35,67.2,46.6
			C1269.5,2376.4,1276.4,2376,1283.3,2376z"/>
		<path class="st0" d="M1602.2,2288.3c0-3.6-0.1-7.2-0.1-10.8c-0.1-6.7,0-13.3,0.4-20c0.1-1.7,0.2-3.4,0.2-5.1
			c-12.2-2.5-23,0.9-23,0.9c-119.8,40.8-175.5,37.4-175.5,37.4c-138.3-5.8-177.8-142.7-177.8-142.7
			c-6.2,134.1,132.9,179.5,132.9,179.5c68.3,24.3,176.8-15.5,176.8-15.5c27.7-10.9,49.8-13.1,66-12.1
			C1602.1,2296,1602.1,2292.2,1602.2,2288.3z"/>
		<path class="st0" d="M1601.6,2135.7c0.2-7,0-13.9-0.7-20.9c-0.1-1.5-0.2-3-0.2-4.4c-48.7,55.7-77.7,73.2-77.7,73.2
			c-117.3,73.5-227.4-17-227.4-17c70.8,114,211.2,72.8,211.2,72.8c35.2-9.4,69.6-37.8,95.1-63.8
			C1603.7,2162.5,1601.3,2148.9,1601.6,2135.7z"/>
		<path class="st0" d="M1602.5,1998.6c-0.1-6.2-0.2-12.4,0-18.6c0.1-3.6,0.2-7.2,0.4-10.8c-0.4-6.4-0.9-12.8-0.9-19.2c0-3,0-6,0.1-9
			c-0.3-9.8-0.4-19.6-0.2-29.4c-0.4-5.4-0.6-10.9-0.8-16.4c-0.2-4.6-0.2-9.4,0.3-14.1c-0.1-1-0.1-2-0.2-3.1
			c-0.2-5.2-0.2-10.5,0-15.7c-0.1-3.8-0.2-7.6-0.2-11.4c0-0.1,0-0.3,0-0.4c-0.1-1.9-0.2-3.8-0.2-5.5c0-1,0-1.9,0-2.9
			c-4.9,8.6-6,16.8-6,16.8c-13.4,125.9-39.9,175-39.9,175c-63.4,123-204.3,101.3-204.3,101.3c119,62,218.8-45,218.8-45
			c13.5-13.7,24-31.9,32.3-51.2C1600.2,2025.5,1601.3,2012.2,1602.5,1998.6z"/>
		<path class="st0" d="M1494,1655.2c0,0-17.7,36.6,16.1,97.8c0,0,53.3,102.6,38,173.4c0,0-27.3,143.8-161,154.8
			c0,0,130.8-56.7,118.8-194.6c0,0-3.7-55.7-59.5-169.3c0,0-23.9-51.9,46-63.2l3.5-0.5L1494,1655.2z"/>
	</g>
</g>
</svg>
